<svg width="254" height="145" viewBox="0 0 254 145" fill="none" xmlns="http://www.w3.org/2000/svg">
<path d="M143.538 79.821C144.858 77.901 146.458 76.381 148.338 75.261C150.218 74.141 152.238 73.581 154.398 73.581V86.121H151.098C148.538 86.121 146.638 86.621 145.398 87.621C144.158 88.621 143.538 90.361 143.538 92.841V107.541H131.778V73.881H143.538V79.821ZM156.694 90.681C156.694 87.201 157.314 84.161 158.554 81.561C159.834 78.961 161.554 76.961 163.714 75.561C165.914 74.161 168.354 73.461 171.034 73.461C173.354 73.461 175.354 73.921 177.034 74.841C178.714 75.761 180.014 77.001 180.934 78.561V73.881H192.694V107.541H180.934V102.861C180.014 104.421 178.694 105.661 176.974 106.581C175.294 107.501 173.314 107.961 171.034 107.961C168.354 107.961 165.914 107.261 163.714 105.861C161.554 104.461 159.834 102.461 158.554 99.861C157.314 97.221 156.694 94.161 156.694 90.681ZM180.934 90.681C180.934 88.521 180.334 86.821 179.134 85.581C177.974 84.341 176.534 83.721 174.814 83.721C173.054 83.721 171.594 84.341 170.434 85.581C169.274 86.781 168.694 88.481 168.694 90.681C168.694 92.841 169.274 94.561 170.434 95.841C171.594 97.081 173.054 97.701 174.814 97.701C176.534 97.701 177.974 97.081 179.134 95.841C180.334 94.601 180.934 92.881 180.934 90.681ZM235.636 73.881L214.276 123.561H201.496L209.536 106.101L195.736 73.881H208.816L215.896 92.961L222.736 73.881H235.636ZM244.412 108.021C242.332 108.021 240.652 107.461 239.372 106.341C238.132 105.181 237.512 103.721 237.512 101.961C237.512 100.201 238.132 98.741 239.372 97.581C240.652 96.421 242.332 95.841 244.412 95.841C246.452 95.841 248.092 96.421 249.332 97.581C250.612 98.741 251.252 100.201 251.252 101.961C251.252 103.681 250.612 105.121 249.332 106.281C248.092 107.441 246.452 108.021 244.412 108.021Z" fill="#FBF5F5"/>
<path d="M131.758 107.541H143.558V123.541L131.758 113.541V107.541Z" fill="#FBF5F5"/>
<path d="M128.418 113.481L88.2292 72.436L127.863 31.026L109.994 12.541L70.3024 54.131L30.1374 13.116L12.4184 31.446L52.6365 72.646L12.9742 114.211L30.6932 132.541L70.5054 90.951L110.55 131.966L128.418 113.481Z" fill="#FBF7F7"/>
<rect x="130.372" y="115.34" width="14.5395" height="26.4371" transform="rotate(42.968 130.372 115.34)" fill="#FBF7F7"/>
<rect x="29.0493" y="134.749" width="14.5395" height="25.6962" transform="rotate(136.957 29.0493 134.749)" fill="#FBF7F7"/>
<rect x="10.4454" y="29.5475" width="14.5395" height="26.2976" transform="rotate(-135.924 10.4454 29.5475)" fill="#FBF7F7"/>
<rect x="140.256" y="18.6195" width="14.5395" height="25.8039" transform="rotate(136.185 140.256 18.6195)" fill="#FBF7F7"/>
</svg>
